Coordinates
version=1
nRows=53
nColumns=11
inDegrees=yes

Units are S.I. units (second, meters, Newtons, ...)
If the header above contains a line with 'inDegrees', this indicates whether rotational values are in degrees (yes) or radians (no).

endheader
time	pelvis_tilt	pelvis_tx	pelvis_ty	hip_flexion_l	hip_flexion_r	knee_angle_l	knee_angle_r	ankle_angle_l	ankle_angle_r	lumbar
     14.30000000	     -4.79990944	      0.00344386	      0.72714236	     74.40240548	     74.40240548	    -76.80307836	    -76.80307836	      7.37689393	      7.37689393	    -43.33423545
     14.31000000	     -5.72189505	      0.00637148	      0.72739103	     75.03303884	     75.03303884	    -76.63804102	    -76.63804102	      7.54258831	      7.54258831	    -43.34847916
     14.32000000	     -6.47406266	      0.00940766	      0.72824431	     75.41592522	     75.41592522	    -76.40683854	    -76.40683854	      7.64818634	      7.64818634	    -43.59026432
     14.33000000	     -7.60559236	      0.01245530	      0.72799813	     76.29078590	     76.29078590	    -76.28341150	    -76.28341150	      7.88421958	      7.88421958	    -43.31434341
     14.34000000	     -8.56533831	      0.01561666	      0.72834840	     76.91657617	     76.91657617	    -76.09652057	    -76.09652057	      8.05764448	      8.05764448	    -43.25944441
     14.35000000	     -9.51735710	      0.01882676	      0.72876032	     77.52523279	     77.52523279	    -75.90455254	    -75.90455254	      8.23017232	      8.23017232	    -43.19838523
     14.36000000	    -10.48511743	      0.02211312	      0.72921772	     78.13313700	     78.13313700	    -75.69817425	    -75.69817425	      8.40656441	      8.40656441	    -43.10290139
     14.37000000	    -11.42638590	      0.02543597	      0.72976822	     78.69979916	     78.69979916	    -75.48727297	    -75.48727297	      8.57673833	      8.57673833	    -43.01716175
     14.38000000	    -12.38158393	      0.02878949	      0.73034415	     79.26895565	     79.26895565	    -75.26385034	    -75.26385034	      8.75513722	      8.75513722	    -42.89113403
     14.39000000	    -13.28874337	      0.03219068	      0.73104925	     79.77901866	     79.77901866	    -75.03920648	    -75.03920648	      8.92533100	      8.92533100	    -42.78240285
     14.40000000	    -14.19681811	      0.03558819	      0.73176999	     80.28404304	     80.28404304	    -74.80838779	    -74.80838779	      9.10645758	      9.10645758	    -42.63750696
     14.41000000	    -15.07373324	      0.03900564	      0.73259234	     80.74281037	     80.74281037	    -74.57208109	    -74.57208109	      9.28543140	      9.28543140	    -42.50349353
     14.42000000	    -15.91952569	      0.04241335	      0.73345861	     81.16910696	     81.16910696	    -74.33551556	    -74.33551556	      9.46987972	      9.46987972	    -42.35641353
     14.43000000	    -16.72868265	      0.04580668	      0.73436858	     81.55899824	     81.55899824	    -74.10012538	    -74.10012538	      9.66087228	      9.66087228	    -42.19941734
     14.44000000	    -17.49653400	      0.04919399	      0.73533904	     81.90336481	     81.90336481	    -73.86958966	    -73.86958966	      9.85313709	      9.85313709	    -42.04772067
     14.45000000	    -18.22617427	      0.05256149	      0.73638684	     82.20745303	     82.20745303	    -73.63640522	    -73.63640522	     10.03930049	     10.03930049	    -41.89672908
     14.46000000	    -18.90509331	      0.05591818	      0.73747212	     82.46262772	     82.46262772	    -73.41074825	    -73.41074825	     10.22734630	     10.22734630	    -41.73903015
     14.47000000	    -19.54126739	      0.05923850	      0.73861241	     82.67823536	     82.67823536	    -73.18786808	    -73.18786808	     10.41821375	     10.41821375	    -41.57766947
     14.48000000	    -20.03116917	      0.06257350	      0.74012562	     82.71970007	     82.71970007	    -72.93570683	    -72.93570683	     10.51537129	     10.51537129	    -41.55172537
     14.49000000	    -20.67589642	      0.06576667	      0.74111772	     82.96892241	     82.96892241	    -72.73293344	    -72.73293344	     10.77059810	     10.77059810	    -41.24360813
     14.50000000	    -21.09607035	      0.06903835	      0.74273762	     82.94497741	     82.94497741	    -72.48003448	    -72.48003448	     10.86604071	     10.86604071	    -41.18247856
     14.51000000	    -21.53111017	      0.07224342	      0.74429268	     82.94489978	     82.94489978	    -72.22936563	    -72.22936563	     10.99911033	     10.99911033	    -41.03765593
     14.52000000	    -22.04005792	      0.07533991	      0.74560620	     83.04706249	     83.04706249	    -72.01120528	    -72.01120528	     11.30171388	     11.30171388	    -40.72265884
     14.53000000	    -22.37469077	      0.07849613	      0.74743512	     82.92925363	     82.92925363	    -71.73279303	    -71.73279303	     11.38518017	     11.38518017	    -40.59438821
     14.54000000	    -22.71929718	      0.08160370	      0.74930031	     82.81800777	     82.81800777	    -71.44088977	    -71.44088977	     11.51806930	     11.51806930	    -40.40043880
     14.55000000	    -23.03849235	      0.08467077	      0.75123609	     82.67795384	     82.67795384	    -71.13976381	    -71.13976381	     11.65039916	     11.65039916	    -40.17743754
     14.56000000	    -23.33988746	      0.08772052	      0.75325693	     82.51111567	     82.51111567	    -70.82152676	    -70.82152676	     11.78961115	     11.78961115	    -39.92625960
     14.57000000	    -23.63121981	      0.09075357	      0.75535710	     82.32259771	     82.32259771	    -70.49500976	    -70.49500976	     12.10698072	     12.10698072	    -39.63701595
     14.58000000	    -23.89980486	      0.09372447	      0.75765123	     82.08845695	     82.08845695	    -70.10976287	    -70.10976287	     12.15580191	     12.15580191	    -39.34320958
     14.59000000	    -24.16589672	      0.09663938	      0.76006974	     81.83729819	     81.83729819	    -69.69512516	    -69.69512516	     12.21760420	     12.21760420	    -39.02364850
     14.60000000	    -24.42562436	      0.09952003	      0.76260304	     81.56163352	     81.56163352	    -69.24842654	    -69.24842654	     12.28580049	     12.28580049	    -38.67502255
     14.61000000	    -24.67425359	      0.10235580	      0.76526545	     81.25911963	     81.25911963	    -68.76968087	    -68.76968087	     12.35673000	     12.35673000	    -38.30944834
     14.62000000	    -24.91403097	      0.10515122	      0.76805783	     80.93037157	     80.93037157	    -68.25708336	    -68.25708336	     12.41858360	     12.41858360	    -37.92779608
     14.63000000	    -25.14446254	      0.10790136	      0.77098432	     80.57543092	     80.57543092	    -67.71094250	    -67.71094250	     12.46682383	     12.46682383	    -37.53483757
     14.64000000	    -25.36575610	      0.11062458	      0.77402935	     80.19406652	     80.19406652	    -67.13088630	    -67.13088630	     12.49870281	     12.49870281	    -37.13218688
     14.65000000	    -25.57582890	      0.11329134	      0.77720147	     79.78842683	     79.78842683	    -66.51880450	    -66.51880450	     12.51263726	     12.51263726	    -36.72413032
     14.66000000	    -25.77205385	      0.11592886	      0.78049469	     79.35377850	     79.35377850	    -65.87644832	    -65.87644832	     12.50580571	     12.50580571	    -36.31556240
     14.67000000	    -25.95534176	      0.11854574	      0.78389090	     78.89290369	     78.89290369	    -65.20708429	    -65.20708429	     12.47865115	     12.47865115	    -35.90540450
     14.68000000	    -26.12838696	      0.12117664	      0.78733944	     78.41394721	     78.41394721	    -64.52840536	    -64.52840536	     12.43648844	     12.43648844	    -35.48497180
     14.69000000	    -26.12872382	      0.12389135	      0.79130674	     77.71845951	     77.71845951	    -63.78483942	    -63.78483942	     12.17676774	     12.17676774	    -35.27706325
     14.70000000	    -26.34715672	      0.12640133	      0.79471682	     77.28105674	     77.28105674	    -63.06611773	    -63.06611773	     12.17534004	     12.17534004	    -34.75965643
     14.71000000	    -26.51397773	      0.12894073	      0.79829052	     76.77447700	     76.77447700	    -62.32013841	    -62.32013841	     12.12831433	     12.12831433	    -34.29035574
     14.72000000	    -26.64132267	      0.13149964	      0.80195984	     76.21856031	     76.21856031	    -61.55833624	    -61.55833624	     12.04598204	     12.04598204	    -33.84976983
     14.73000000	    -26.74246728	      0.13407104	      0.80567463	     75.63116285	     75.63116285	    -60.78695166	    -60.78695166	     11.94163970	     11.94163970	    -33.41743910
     14.74000000	    -26.83710458	      0.13664106	      0.80940030	     75.02547337	     75.02547337	    -59.98825885	    -59.98825885	     11.83399019	     11.83399019	    -32.96228084
     14.75000000	    -26.59718435	      0.13951653	      0.81383323	     74.05312893	     74.05312893	    -59.18943874	    -59.18943874	     11.36681966	     11.36681966	    -32.92338756
     14.76000000	    -26.77005065	      0.14204046	      0.81721595	     73.56344090	     73.56344090	    -58.43101465	    -58.43101465	     11.35880672	     11.35880672	    -32.29498585
     14.77000000	    -26.60920099	      0.14484794	      0.82142462	     72.67695679	     72.67695679	    -57.61530461	    -57.61530461	     11.02707412	     11.02707412	    -32.11243920
     14.78000000	    -26.74505537	      0.14742023	      0.82478827	     72.15941058	     72.15941058	    -56.86908262	    -56.86908262	     11.01114693	     11.01114693	    -31.48887775
     14.79000000	    -26.80448169	      0.15007592	      0.82829761	     71.55240098	     71.55240098	    -56.10793538	    -56.10793538	     10.94478036	     10.94478036	    -30.94187520
     14.80000000	    -26.45168509	      0.15310386	      0.83270840	     70.46962204	     70.46962204	    -55.30074759	    -55.30074759	     10.53517421	     10.53517421	    -30.90474459
     14.81000000	    -26.38470712	      0.15592611	      0.83635735	     69.73049653	     69.73049653	    -54.54622869	    -54.54622869	     10.37289636	     10.37289636	    -30.46389314
     14.82000000	    -26.28061978	      0.15877914	      0.84002329	     68.96077371	     68.96077371	    -53.80563301	    -53.80563301	     10.22233890	     10.22233890	    -30.04312330
